<?xml version="1.0" encoding="UTF-8"?> <svg xmlns="http://www.w3.org/2000/svg" id="final-logo-light" width="343" height="99" viewBox="0 0 343 99"><defs><style> .cls-1 { fill: #ff172d; } .cls-2 { fill: #090909; } </style></defs><path id="icon" class="cls-1" d="M330.721,29.318L301.778,0.38,272.837,29.315A40.928,40.928,0,1,0,330.721,29.318Zm-28.743-7.185s0.36,2.569,5.554,7.761c5.65,5.648,3.127,10.184,3.127,10.184,0.156-5.734-4.338-8.368-7.131-11.778S301.978,22.133,301.978,22.133Zm17.967,54.281a25.688,25.688,0,0,1-43.77-16.1c-0.016-.165-0.027-0.33-0.034-0.5s-0.007-.323-0.01-0.483c0-.077,0-0.149,0-0.221,0.041-10.651,7.732-14.463,10.157-20.885,0.04-.1.077-0.2,0.112-0.307s0.072-.216.107-0.325a7.725,7.725,0,0,0-1.128-7.58,17.926,17.926,0,0,1,4.762,5.333,22.355,22.355,0,0,1,2.92,14.179c0.123-.244,3.983-8.171,1.59-15.955a15.922,15.922,0,0,0-1.948-4.137c-5.78-8.721,4.013-14.021,4.513-14.284-0.407.258-6.95,4.684,4.78,17.42a37.772,37.772,0,0,1,5.884,8.268c4.757,9.228,2.493,16.025,2.493,16.025S321.533,46.4,315.2,36.349A25.7,25.7,0,0,1,319.945,76.414Z" transform="translate(-0.344 -0.375)"></path><path id="Industic" class="cls-2" d="M9.929,25.775H0.353V77H9.929V25.775ZM52.716,51.387q0-6.384-3.344-9.88t-9.12-3.5q-8.589,0-11.856,7.068V38.467h-9.12V77H28.4V56.327q0-5.167,2.432-7.942a7.673,7.673,0,0,1,6-2.774,6.459,6.459,0,0,1,4.94,1.938A8.086,8.086,0,0,1,43.6,53.287V77h9.12V51.387Zm17.973-2.47a8.342,8.342,0,0,1,6.65-3.23,9.049,9.049,0,0,1,6.612,2.926q2.887,2.927,2.888,8.778,0,6-2.736,9.158a8.681,8.681,0,0,1-6.84,3.154,8.2,8.2,0,0,1-6.612-3.268,13.051,13.051,0,0,1-2.66-8.512Q67.992,52.148,70.69,48.917Zm25.27-25.65H86.84V44.4a12.846,12.846,0,0,0-11.552-6.46,15.169,15.169,0,0,0-11.97,5.358q-4.674,5.358-4.674,14.478A22.243,22.243,0,0,0,63.09,71.755a14.4,14.4,0,0,0,12.046,5.776A12.83,12.83,0,0,0,86.84,71v6h9.12V23.267Zm41.419,15.2h-9.2V59.139q0,5.4-2.242,8.056a7.664,7.664,0,0,1-6.194,2.66,6.4,6.4,0,0,1-4.9-1.9,7.809,7.809,0,0,1-1.786-5.548V38.467h-9.12V64.535q0,6.156,3.268,9.5t9.12,3.344q8.815,0,11.856-6.688V77h9.2V38.467ZM168.538,59.6a22.794,22.794,0,0,0-6.384-4.408q-0.609-.3-1.672-0.76t-1.672-.76q-0.609-.3-1.444-0.722a6.714,6.714,0,0,1-1.292-.8q-0.456-.379-0.95-0.874a2.777,2.777,0,0,1-.684-1.026,3.349,3.349,0,0,1-.19-1.14,3.172,3.172,0,0,1,1.33-2.622,5.9,5.9,0,0,1,3.686-1.026,18.194,18.194,0,0,1,9.5,2.28V39.683a24.665,24.665,0,0,0-9.728-1.672,16.307,16.307,0,0,0-10.108,3.04,9.9,9.9,0,0,0-4.028,8.36q0,7.145,8.436,10.944a2.755,2.755,0,0,0,.38.152,1.548,1.548,0,0,1,.342.152,1.435,1.435,0,0,0,.342.152q2.127,0.912,2.85,1.254t2.014,1.1a4.694,4.694,0,0,1,1.748,1.558,3.538,3.538,0,0,1,.456,1.786,3,3,0,0,1-1.406,2.622,6.925,6.925,0,0,1-3.914.95,19.379,19.379,0,0,1-11.02-3.42v8.36q4.407,2.357,11.552,2.356,6.459,0,10.336-3.04a10.119,10.119,0,0,0,3.876-8.436A8.69,8.69,0,0,0,168.538,59.6Zm29.411,8.664a9.5,9.5,0,0,1-5.32,1.6,4.439,4.439,0,0,1-4.864-4.94V45.307h9.576v-6.84h-9.576V29.2h-9.12v9.272h-5.776v6.84h5.776V64.763q0,12.617,12.464,12.616a15.676,15.676,0,0,0,6.84-1.292V68.259Zm15.5-29.792h-9.12V77h9.12V38.467Zm-0.684-15.428a5.472,5.472,0,0,0-9.348,3.876,5.367,5.367,0,0,0,1.6,3.952,5.5,5.5,0,0,0,7.752,0,5.367,5.367,0,0,0,1.6-3.952A5.277,5.277,0,0,0,212.769,23.039Zm37.315,44.384a15.877,15.877,0,0,1-8.74,2.584,11.185,11.185,0,0,1-8.55-3.344,12.87,12.87,0,0,1-3.306-8.816,12.432,12.432,0,0,1,3.344-8.892,11.468,11.468,0,0,1,8.588-3.344,15.73,15.73,0,0,1,8.664,2.432V39.987a19.967,19.967,0,0,0-9.576-2.128q-9.425,0-14.858,5.776a20.236,20.236,0,0,0-5.51,14.212,19.471,19.471,0,0,0,5.51,14.212q5.51,5.625,14.4,5.624a19.6,19.6,0,0,0,10.032-2.356v-7.9Z" transform="translate(-0.344 -0.375)"></path></svg> 